<svg width="96" height="41" viewBox="0 0 96 41" fill="none" xmlns="http://www.w3.org/2000/svg">
<g clip-path="url(#clip0_12_85)">
<path d="M0.270233 2.11761L95.346 0.968046L95.5403 32.4578L7.95159 40.6664L0.270233 2.11761Z" fill="#DF8E7E"/>
<path d="M19.4521 13.9632C19.4713 15.2052 18.7676 16.1888 17.3411 16.9141C17.6239 19.035 17.8771 20.7578 18.1007 22.0827C18.4098 23.8828 18.8203 25.1657 19.3321 25.9313C19.7809 26.6588 20.288 27.112 20.8533 27.2908C21.0258 27.3272 21.1166 27.3922 21.1259 27.4858C21.1195 27.5797 20.9445 27.6332 20.601 27.6463C20.0072 27.6476 19.404 27.2975 18.7916 26.596C18.1792 25.9022 17.754 25.1821 17.5159 24.4357C17.4915 24.3736 17.4749 24.3152 17.4663 24.2607C16.999 22.838 16.5693 20.5632 16.1772 17.436L15.5711 17.6563C14.4716 21.3378 13.7421 24.1932 13.3828 26.2224C13.323 26.3952 13.2619 26.4899 13.1997 26.5065C13.0667 26.5007 12.909 26.4055 12.7264 26.2208C12.5517 26.036 12.4586 25.8265 12.4472 25.5922C12.4434 25.3501 12.6947 24.1664 13.201 22.0411C13.7074 19.9159 14.4941 16.9737 15.5612 13.2146C15.5982 13.0812 15.6626 12.9551 15.7546 12.8365C16.0687 12.4332 16.5929 12.2259 17.3272 12.2145C17.7568 12.2079 18.2162 12.3571 18.7053 12.662C19.1945 12.967 19.4434 13.4007 19.4521 13.9632ZM16.562 13.5156C16.4976 13.8994 16.3546 14.5032 16.1329 15.3271C15.9111 16.1431 15.789 16.5864 15.7667 16.6571C16.0392 16.5982 16.3114 16.512 16.5831 16.3984C17.6697 15.9284 18.2018 15.217 18.1792 14.2641C18.1785 14.2172 18.1736 14.1548 18.1646 14.0768C18.0705 13.547 17.8399 13.2849 17.4727 13.2905C17.1056 13.2962 16.802 13.3712 16.562 13.5156ZM25.8213 18.0958C24.5747 18.326 23.4977 19.1631 22.5902 20.6069C21.7055 22.0114 21.2502 23.3936 21.2243 24.7535C22.9768 22.3668 24.5091 20.1476 25.8213 18.0958ZM25.2669 17.1082L25.9597 17.1912C26.0691 17.1895 26.1814 17.1253 26.2966 16.9985C26.4197 16.8716 26.575 16.8067 26.7624 16.8038C26.9577 16.8008 27.1108 16.8492 27.2218 16.949C27.3405 17.0488 27.4005 17.1377 27.4017 17.2158C27.4028 17.2861 27.3656 17.4078 27.2901 17.5809C27.2147 17.7539 27.1695 17.8679 27.1548 17.9229C26.1661 21.1963 25.6787 23.2822 25.6926 24.1805C25.7052 24.4929 25.778 24.6519 25.9109 24.6577C26.3874 24.6503 27.1238 24.0139 28.12 22.7484C28.7867 21.902 29.2147 21.2821 29.4039 20.8885C29.601 20.4948 29.7579 20.2853 29.8748 20.26C29.8982 20.2597 29.9177 20.2555 29.9332 20.2474C30.074 20.2609 30.1495 20.3418 30.1596 20.4901C30.1639 20.7713 29.8495 21.409 29.2164 22.4033C27.8663 24.5338 26.6874 25.6068 25.6797 25.6223C24.9532 25.6335 24.5821 25.1314 24.5665 24.1159C24.559 23.6316 24.6473 23.0286 24.8315 22.3069C25.0156 21.5774 25.1258 21.1225 25.1621 20.9423C24.986 21.1794 24.3977 22.0401 23.397 23.5245C22.3964 25.0089 21.6755 25.8873 21.2343 26.1598C21.0949 26.2401 20.9745 26.2849 20.8731 26.2943C20.4278 26.3011 20.1009 26.1304 19.8924 25.782C19.796 25.6116 19.7453 25.3663 19.7404 25.046C19.7275 24.718 19.9542 23.9644 20.4204 22.7852C21.1724 20.8828 22.0365 19.4122 23.0128 18.3736C23.7816 17.5647 24.533 17.1429 25.2669 17.1082ZM32.4434 16.5871L36.6484 16.4285C36.7344 16.4271 36.8293 16.5038 36.9333 16.6585C37.0371 16.8053 37.0949 17.0076 37.1067 17.2652C37.1016 17.4372 36.8803 17.5305 36.443 17.545C35.1468 17.5963 33.579 17.7768 31.7399 18.0865C31.613 18.4713 31.4067 19.0253 31.1209 19.7486C29.8651 22.9246 29.247 25.1492 29.2667 26.4225C29.2765 27.0553 29.4069 27.6627 29.6582 28.2448C30.0952 29.2226 30.7316 29.705 31.5674 29.6921C32.2158 29.6821 32.7561 29.5057 33.1884 29.1631C33.6286 28.8281 34.1436 28.2771 34.7334 27.5101C34.9171 27.2651 35.1111 27.1761 35.3152 27.2433C35.5119 27.3262 35.6121 27.4926 35.616 27.7426C35.627 28.4613 35.2223 29.0653 34.4016 29.5546C33.581 30.0517 32.6943 30.3076 31.7413 30.3223C30.7961 30.3369 29.9705 30.0019 29.2645 29.3174C28.5664 28.6328 28.2084 27.7124 28.1905 26.5563C28.1786 25.783 28.2634 24.9535 28.4451 24.0677C28.6267 23.182 28.9652 22.079 29.4605 20.7587C29.9557 19.4306 30.278 18.5466 30.4275 18.1067C28.8105 18.1317 27.908 18.1261 27.7199 18.0899C27.1399 17.9739 26.8432 17.7323 26.8297 17.3653C26.8357 17.248 26.9244 17.1724 27.0958 17.1385L30.899 16.7633L33.3414 12.5064C33.6229 12.0176 33.8809 11.7714 34.1152 11.7678C34.209 11.7663 34.3186 11.7803 34.4441 11.8096C34.9065 11.904 35.1395 12.0684 35.1432 12.3028C35.1467 12.5293 34.9177 12.8844 34.4564 13.3682C33.9951 13.8519 33.7107 14.161 33.6034 14.2955C33.2433 14.7543 32.8566 15.5181 32.4434 16.5871ZM37.1463 19.8313C37.3022 19.8055 37.6329 19.4644 38.1385 18.8081C38.644 18.1518 38.894 17.64 38.8883 17.2729C38.8875 17.2182 38.867 17.156 38.8268 17.0863C38.673 17.245 38.3518 17.6953 37.8632 18.4373C37.3824 19.1792 37.1434 19.6439 37.1463 19.8313ZM41.8368 21.5052C42.2209 21.0774 42.4385 20.9998 42.4895 21.2725C42.4911 21.374 42.4312 21.5429 42.3098 21.7792C41.9381 22.496 41.3638 23.2588 40.5872 24.0678C39.3568 25.3525 38.2613 26.0024 37.3005 26.0172C36.8474 26.0242 36.4587 25.9013 36.1345 25.6484C35.5254 25.1656 35.2114 24.3149 35.1926 23.0963C35.1819 22.401 35.3777 21.4213 35.7801 20.1571C36.1902 18.885 36.8287 17.7305 37.6956 16.6936C38.0785 16.1876 38.4808 15.9314 38.9026 15.9248C39.1058 15.9217 39.3173 15.9614 39.5374 16.044C40.0562 16.2469 40.3192 16.5827 40.3265 17.0514C40.3275 17.1217 40.3059 17.2354 40.2614 17.3923C39.9509 18.03 39.4466 18.7683 38.7485 19.6073C38.0505 20.4464 37.3381 21.1176 36.6114 21.6211C36.3754 22.5311 36.2614 23.2399 36.2692 23.7477C36.277 24.2554 36.2938 24.5794 36.3194 24.7197C36.3947 25.0467 36.659 25.2067 37.112 25.1997C37.5651 25.1927 38.0853 24.9776 38.6726 24.5544C39.2597 24.1234 39.8839 23.559 40.5451 22.8613C41.2063 22.1635 41.5792 21.7709 41.6638 21.6837C41.7562 21.5963 41.8139 21.5368 41.8368 21.5052ZM50.297 16.8389L50.4607 16.8129C50.867 16.8145 51.068 16.9247 51.0635 17.1435C51.0572 17.2374 51.0352 17.3354 50.9978 17.4375C50.9601 17.5319 50.8318 17.8229 50.6128 18.3108C50.3408 18.9166 50.234 19.3323 50.2921 19.558L50.2932 19.6283L51.14 18.3026C51.6893 17.4425 52.0977 16.8189 52.3652 16.4319C52.4418 16.3292 52.5738 16.2763 52.7612 16.2734C52.9487 16.2705 53.1018 16.319 53.2206 16.4187C53.347 16.5105 53.4146 16.5837 53.4232 16.6383L53.3556 16.8151C52.0022 20.2505 51.3368 22.6985 51.3594 24.1593C51.3688 24.7686 51.5736 25.1288 51.9738 25.2398C52.3425 25.3357 52.7158 25.2205 53.0936 24.8943C54.1505 24.0185 55.0902 22.8906 55.9128 21.5106L56.1296 21.1322C56.2058 21.006 56.3257 20.9299 56.4894 20.9039C56.7003 20.9007 56.8075 21.0123 56.811 21.2388C56.8173 21.645 56.3794 22.3824 55.4974 23.4508C54.623 24.5113 53.9697 25.209 53.5373 25.5438C53.1127 25.8785 52.6426 26.0499 52.1271 26.0578C51.6193 26.0657 51.1967 25.7675 50.8592 25.1632C50.6262 24.7449 50.5053 24.2584 50.4968 23.7038C50.4882 23.1492 50.6057 22.409 50.8493 21.4833C51.1005 20.5496 51.2364 19.9888 51.2569 19.801C51.2775 19.6131 51.2837 19.5076 51.2755 19.4843C50.9157 19.9664 50.5042 20.6408 50.0409 21.5075L49.1291 23.1741C48.992 23.4028 48.8531 23.5182 48.7125 23.5204C48.3219 23.5264 48.1229 23.2912 48.1156 22.8147C48.1122 22.596 48.2581 22.1757 48.5532 21.5539C48.8483 20.9321 48.9938 20.4844 48.9896 20.211C48.883 20.3924 48.7007 20.7351 48.4429 21.2391C47.8816 22.3339 47.1356 23.3611 46.205 24.3209C45.8511 24.678 45.5185 24.8941 45.2071 24.9692C44.7454 24.9217 44.6107 24.8026 44.8031 24.6121C45.3263 24.0884 45.7488 23.6208 46.0707 23.2096C46.7449 22.3475 47.222 21.3635 47.5018 20.2574C47.7893 19.1435 47.9512 18.4925 47.9873 18.3044C48.0235 18.1163 48.093 17.8105 48.1959 17.387L48.4174 16.5515C48.5268 16.0497 48.6547 15.7313 48.8011 15.5962C48.9553 15.461 49.1339 15.3918 49.337 15.3887C49.7198 15.3828 49.9131 15.5048 49.917 15.7548C49.9206 15.9891 49.635 16.7202 49.0601 17.948C48.4851 19.1679 48.1341 19.9664 48.0071 20.3434C48.0531 20.288 48.1866 20.0789 48.4076 19.7161C48.6286 19.3532 48.7582 19.1403 48.7962 19.0772C48.8422 19.014 48.9259 18.872 49.0475 18.6514C49.693 17.4459 50.1095 16.8418 50.297 16.8389ZM58.0267 19.5089C58.1825 19.4831 58.5132 19.142 59.0188 18.4857C59.5244 17.8294 59.7743 17.3176 59.7686 16.9505C59.7678 16.8958 59.7473 16.8336 59.7071 16.7639C59.5533 16.9226 59.2321 17.3729 58.7435 18.1149C58.2627 18.8568 58.0238 19.3215 58.0267 19.5089ZM62.7171 21.1828C63.1012 20.755 63.3188 20.6774 63.3699 20.9501C63.3714 21.0516 63.3115 21.2205 63.1902 21.4568C62.8184 22.1736 62.2441 22.9364 61.4675 23.7454C60.2372 25.0302 59.1416 25.68 58.1808 25.6948C57.7277 25.7018 57.339 25.5789 57.0148 25.326C56.4057 24.8432 56.0917 23.9925 56.0729 22.7739C56.0622 22.0786 56.258 21.0989 56.6604 19.8348C57.0705 18.5626 57.709 17.4081 58.5759 16.3712C58.9588 15.8652 59.3611 15.609 59.783 15.6025C59.9861 15.5993 60.1977 15.639 60.4177 15.7216C60.9365 15.9245 61.1995 16.2603 61.2068 16.729C61.2079 16.7993 61.1862 16.913 61.1417 17.0699C60.8312 17.7076 60.3269 18.446 59.6289 19.285C58.9308 20.124 58.2184 20.7952 57.4917 21.2987C57.2558 22.2087 57.1417 22.9175 57.1495 23.4253C57.1574 23.933 57.1741 24.257 57.1997 24.3973C57.2751 24.7243 57.5393 24.8843 57.9924 24.8773C58.4454 24.8703 58.9656 24.6552 59.5529 24.232C60.1401 23.801 60.7642 23.2366 61.4254 22.5389C62.0866 21.8411 62.4595 21.4485 62.5441 21.3613C62.6365 21.2739 62.6942 21.2144 62.7171 21.1828ZM64.6488 13.4529C65.1253 13.4455 65.3662 13.6137 65.3715 13.9574C65.3725 14.0199 65.3185 14.3176 65.2095 14.8506C65.1004 15.3758 64.9914 16.1588 64.8825 17.1997C64.6775 19.1093 64.3598 20.5441 63.9293 21.504C63.8229 21.701 63.6643 21.805 63.4536 21.8161C63.2426 21.8193 63.12 21.7196 63.0856 21.517C63.0851 21.4858 63.0801 21.4155 63.0706 21.3063C63.069 21.1969 63.1008 20.9855 63.1663 20.6719C63.2754 20.1467 63.4546 19.1009 63.7039 17.5343C63.9531 15.96 64.1105 15.0239 64.1762 14.7259C64.2496 14.4201 64.3117 14.1417 64.3626 13.8909C64.4133 13.6323 64.5087 13.4863 64.6488 13.4529ZM63.2018 23.7303C63.6705 23.7231 63.9086 23.9616 63.9161 24.4459C63.9178 24.5553 63.8999 24.6611 63.8624 24.7632C63.7419 25.0542 63.5332 25.2019 63.2363 25.2065C62.9473 25.211 62.6962 25.1406 62.483 24.9955C62.2698 24.8503 62.1614 24.6645 62.1579 24.4379C62.1543 24.2036 62.1901 23.9921 62.2653 23.8034C62.3483 23.6068 62.4199 23.4416 62.4804 23.3078C62.5136 23.4323 62.5621 23.5371 62.6259 23.622C62.6896 23.6992 62.8816 23.7353 63.2018 23.7303Z" fill="white"/>
<path d="M72.001 15.9405C72.001 20.8578 74.2678 22.3665 75.4013 22.5062C75.4013 25.8589 76.5783 26.1383 77.4937 26.1383C78.4092 26.1383 78.4092 24.881 78.8015 24.462C79.1939 24.0429 79.1939 26.1383 80.1093 26.1383C81.0248 26.1383 81.5479 24.881 81.9402 24.462C82.3326 24.0429 82.7249 26.1383 83.6403 26.1383C84.5558 26.1383 84.6866 25.1605 85.0789 24.881C85.4713 24.6017 85.9944 26.1383 87.0406 26.1383C87.8776 26.1383 88.174 23.7169 88.2176 22.5062C90.6239 22.0592 91.0511 18.6879 90.964 17.0581C91.4871 7.97787 86.2559 7 79.0631 7C73.3088 7 71.9574 12.9603 72.001 15.9405Z" stroke="white"/>
<path d="M77.5358 16.2694C78.2581 16.2694 78.8436 15.4564 78.8436 14.4534C78.8436 13.4504 78.2581 12.6374 77.5358 12.6374C76.8135 12.6374 76.228 13.4504 76.228 14.4534C76.228 15.4564 76.8135 16.2694 77.5358 16.2694Z" fill="white"/>
<path d="M84.5825 16.2695C85.3048 16.2695 85.8903 15.4564 85.8903 14.4534C85.8903 13.4504 85.3048 12.6374 84.5825 12.6374C83.8602 12.6374 83.2747 13.4504 83.2747 14.4534C83.2747 15.4564 83.8602 16.2695 84.5825 16.2695Z" fill="white"/>
</g>
<defs>
<clipPath id="clip0_12_85">
<rect width="96" height="41" fill="white"/>
</clipPath>
</defs>
</svg>
