<svg width="316" height="219" viewBox="0 0 316 219" fill="none" xmlns="http://www.w3.org/2000/svg">
<g clip-path="url(#clip0_11_64)">
<path d="M178.454 8.76374C177.652 1.75275 170.101 0 166.426 0C156.803 0 154.064 5.84249 153.897 8.76374V145H178.454C178.788 102.509 179.256 15.7747 178.454 8.76374Z" fill="#BB5141"/>
<path d="M69.9882 64.8852C69.9882 44.4262 61.3294 25.1038 57 18L263.811 20.1311C284.992 38.2033 271.305 95.5738 261.813 122C251.822 112.623 185.883 101.541 156.909 101.541C133.73 101.541 82.6433 109.497 59.9973 113.475C63.3276 105.803 69.9882 85.3443 69.9882 64.8852Z" fill="#303030"/>
<path d="M136.004 56.7664C136.004 74.238 144.058 79.5985 148.085 80.0949C148.085 92.0073 152.267 93 155.52 93C158.772 93 158.772 88.5328 160.166 87.0438C161.56 85.5547 161.56 93 164.813 93C168.066 93 169.924 88.5328 171.318 87.0438C172.712 85.5547 174.106 93 177.359 93C180.612 93 181.076 89.5256 182.47 88.5328C183.864 87.5401 185.723 93 189.44 93C192.414 93 193.468 84.3966 193.622 80.0949C202.172 78.5066 203.69 66.528 203.381 60.7372C205.239 28.4745 186.652 25 161.096 25C140.65 25 135.849 46.1776 136.004 56.7664Z" fill="white"/>
<ellipse cx="157.647" cy="52.4526" rx="4.64668" ry="6.45255" fill="black"/>
<ellipse cx="182.647" cy="52.4526" rx="4.64668" ry="6.45255" fill="black"/>
<path d="M273.5 16.0682L54 15C52.8333 15 52 15 52 17.1363C52 18.3968 54 18.7386 58 18.7386L164.5 20.875H270.5C272.167 20.697 275.5 20.3409 275.5 18.2046C275.5 16.6023 275.5 16.0682 273.5 16.0682Z" fill="#E4B09A"/>
<ellipse cx="151.5" cy="67" rx="6.5" ry="3" fill="#FF5757"/>
<ellipse cx="189.5" cy="67" rx="6.5" ry="3" fill="#FF5757"/>
<path d="M68.6296 215.94C43.8423 214.848 22.7623 157.376 15.3208 128.776L82.3467 127.347L86.211 137.265C88.487 146.315 99.7216 148.724 105.054 148.797L198.546 150.08L220.269 133.938L272.387 125.728C266.646 165.107 227.148 203.554 208.116 217.854L68.6296 215.94Z" fill="#65372E"/>
<path d="M78.9159 196.599C78.2227 196.59 77.6394 196.342 77.166 195.855C76.7189 195.396 76.5001 194.819 76.5097 194.126C76.5195 193.406 76.7694 192.69 77.2592 191.976C78.6195 190.021 80.4647 188.687 82.7947 187.972C84.0348 185.055 84.6664 182.757 84.6895 181.077C84.7137 179.317 84.0325 178.428 82.6459 178.409C82.5659 178.408 82.4859 178.407 82.4059 178.406C82.326 178.404 82.2458 178.417 82.1654 178.442C82.5358 178.661 82.7179 178.997 82.7116 179.45C82.6988 180.383 82.2631 181.044 81.4043 181.432C81.4324 181.326 81.4472 181.219 81.4487 181.113C81.4768 181.006 81.4916 180.9 81.4931 180.793C81.507 179.78 80.9936 179.293 79.953 179.332C80.632 178.435 81.5582 177.994 82.7314 178.01C84.4379 178.033 85.2776 179.032 85.2505 181.005C85.2465 181.298 85.2153 181.631 85.1568 182.004C85.125 182.377 85.0531 182.762 84.9409 183.161C85.1627 182.55 85.3723 181.847 85.57 181.049C85.7943 180.252 86.0202 179.335 86.2478 178.298L86.5881 176.823L86.3881 176.82C84.0683 176.788 82.1549 177.269 80.6478 178.261L80.5694 178.14L81.9847 177.04C83.0903 176.148 84.7238 175.664 86.8851 175.587C87.3395 173.566 87.7771 171.799 88.1979 170.284C88.6454 168.77 89.0496 167.496 89.4105 166.461C88.852 166.346 88.3065 166.259 87.774 166.198C87.2681 166.138 86.7485 166.104 86.2152 166.097C84.9887 166.08 83.7729 166.25 82.5679 166.607C81.0414 167.066 80.2713 167.802 80.2574 168.815C80.2519 169.215 80.3927 169.644 80.6798 170.101C80.8098 170.343 80.9005 170.531 80.952 170.665C81.0306 170.773 81.0696 170.84 81.0693 170.867C81.0638 171.266 80.391 171.711 79.0508 172.199C78.7089 171.848 78.5415 171.419 78.5484 170.912C78.5704 169.312 79.6182 167.78 81.6918 166.315C83.7925 164.823 85.6427 164.089 87.2426 164.111C88.0958 164.122 89.1072 164.27 90.2768 164.552C90.7162 163.625 91.2057 162.938 91.7452 162.492C91.8533 162.387 91.9881 162.282 92.1496 162.178C92.311 162.073 92.4997 161.929 92.7156 161.745C92.4427 162.195 92.1561 162.671 91.8559 163.174C91.5556 163.676 91.2685 164.193 90.9945 164.722C93.2007 165.259 95.1417 165.686 96.8175 166.002C98.4937 166.292 99.8917 166.444 101.012 166.46C103.385 166.492 104.938 166.034 105.671 165.084C105.942 164.741 106.145 164.57 106.278 164.572C106.358 164.573 106.397 164.614 106.396 164.694C106.395 164.773 106.354 164.893 106.271 165.052C104.907 167.3 102.732 168.404 99.7454 168.363C97.9856 168.338 95.7502 167.988 93.0392 167.31C92.2718 168.82 91.5128 171.65 90.7625 175.8C93.1582 176.126 94.995 176.378 96.2726 176.556C97.5507 176.707 98.2697 176.783 98.4297 176.785C100.056 176.808 101.407 176.533 102.481 175.961C102.588 175.962 102.641 176.003 102.64 176.083C102.633 176.563 102.026 177.075 100.818 177.618C99.9594 178.033 98.9432 178.232 97.77 178.216C97.2634 178.209 96.411 178.131 95.213 177.981C94.0153 177.805 92.4452 177.557 90.5028 177.237C89.6676 181.732 88.5619 184.571 87.1856 185.752L85.1611 187.524C85.3747 187.5 85.5882 187.49 85.8016 187.493C86.0152 187.469 86.2287 187.459 86.442 187.462C87.322 187.474 88.1871 187.592 89.0374 187.817C91.4014 188.517 93.5276 189.053 95.4159 189.425C97.3047 189.771 98.9424 189.954 100.329 189.973C103.049 190.01 104.896 189.475 105.871 188.369C106.44 187.736 106.73 187.02 106.741 186.22C106.747 185.767 106.632 185.392 106.396 185.095C106.161 184.772 106.043 184.597 106.044 184.571C106.046 184.384 106.127 184.292 106.287 184.294C106.794 184.301 107.04 184.851 107.025 185.944C107.013 186.824 106.721 187.66 106.15 188.452C104.602 190.511 101.961 191.515 98.2282 191.464C97.4283 191.453 96.2036 191.303 94.5541 191.013C92.9312 190.725 90.8969 190.297 88.4511 189.73C87.7863 189.587 87.1343 189.485 86.4951 189.423C85.883 189.334 85.2836 189.286 84.697 189.278C84.0304 189.269 83.3499 189.3 82.6555 189.37C82.3812 189.926 82.1207 190.443 81.8742 190.919C81.6543 191.396 81.4081 191.846 81.1356 192.269C80.8083 192.798 80.578 193.062 80.4447 193.06L80.4452 193.02C80.4474 192.86 80.5579 192.582 80.7767 192.185C80.9962 191.734 81.2291 191.284 81.4753 190.834C81.7211 190.411 81.9409 189.947 82.1345 189.443C80.5835 189.742 79.3223 190.311 78.3507 191.151C77.4057 191.992 76.9268 192.878 76.914 193.812C76.8935 195.305 77.8565 196.065 79.803 196.092C79.9363 196.093 80.0832 196.082 80.2435 196.058C80.4035 196.06 80.4833 196.074 80.4829 196.101C80.4822 196.154 80.0941 196.256 79.3186 196.405C79.2383 196.43 79.1711 196.47 79.117 196.522C79.063 196.575 78.9959 196.6 78.9159 196.599ZM89.0848 175.617L89.0854 175.577C89.0993 174.564 89.2737 173.513 89.6087 172.424C89.9441 171.308 90.2668 170.139 90.5769 168.917C90.7943 168.626 91.0516 168.337 91.3489 168.047C91.6466 167.731 91.9575 167.429 92.2815 167.14L90.1683 166.631C89.727 167.692 89.2828 168.966 88.8357 170.453C88.3886 171.94 87.9252 173.641 87.4455 175.554L87.8055 175.559C87.9922 175.562 88.1921 175.565 88.4055 175.568C88.6188 175.571 88.8452 175.587 89.0848 175.617ZM83.4374 187.781L84.7606 187.559C85.6314 186.291 86.3988 184.781 87.0629 183.03C87.7274 181.252 88.3016 179.247 88.7857 177.013C88.2268 176.925 87.6807 176.878 87.1475 176.87L86.1727 180.857C85.9758 181.602 85.6574 182.451 85.2176 183.405C84.8048 184.332 84.3634 185.406 83.8933 186.627L83.4374 187.781ZM111.839 191.011C109.145 190.974 107.826 188.969 107.881 184.996C107.934 181.103 109.272 176.894 111.894 172.37C114.463 167.871 116.867 165.637 119.107 165.668C119.907 165.679 120.433 166.233 120.684 167.33L120.677 167.85C120.651 169.77 119.127 172.989 116.104 177.508C114.824 179.464 113.614 181.167 112.474 182.619C111.36 184.07 110.317 185.296 109.343 186.296C109.63 188.7 110.72 189.915 112.613 189.941C113.76 189.957 114.737 189.65 115.546 189.021C116.355 188.366 117.221 187.484 118.143 186.377C118.305 186.219 118.413 186.14 118.466 186.141C118.546 186.142 118.585 186.209 118.583 186.343C118.581 186.529 118.484 186.768 118.293 187.059C117.127 188.51 116.033 189.535 115.011 190.134C113.989 190.733 112.932 191.026 111.839 191.011ZM109.397 185.297C110.856 183.903 112.774 181.129 115.151 176.975C117.666 172.556 118.934 169.506 118.957 167.826C118.968 167.08 118.759 166.703 118.333 166.697C116.68 166.675 114.767 169.022 112.596 173.739C111.577 176.072 110.788 178.195 110.228 180.108C109.695 182.02 109.418 183.75 109.397 185.297ZM129.278 194.37C128.291 194.41 127.803 194.003 127.815 193.15C127.824 192.51 128.015 192.193 128.388 192.198C128.442 192.199 128.785 192.443 129.418 192.932C130.052 193.421 130.675 193.669 131.288 193.678C133.821 193.713 136.23 190.185 138.514 183.096L136.997 182.835C135.606 187.03 134.248 189.851 132.921 191.3C132.786 191.432 132.678 191.497 132.598 191.496C132.492 191.494 132.439 191.427 132.441 191.293C132.442 191.24 132.51 191.121 132.646 190.936C133.269 190.225 133.883 189.18 134.489 187.801C135.095 186.423 135.718 184.711 136.36 182.666C134.447 182.107 133.059 181.274 132.194 180.169C131.644 179.388 131.376 178.558 131.388 177.678C131.403 176.584 131.938 175.472 132.994 174.339C134.05 173.154 135.018 172.567 135.898 172.579C136.058 172.581 136.151 172.623 136.176 172.703L136.136 172.742C133.855 173.751 132.704 175.056 132.682 176.655C132.671 177.455 132.927 178.246 133.449 179.026C134.155 180.103 135.223 180.971 136.654 181.63C136.878 180.833 137.103 180.036 137.327 179.239C137.552 178.416 137.763 177.592 137.961 176.768C137.637 177.057 137.178 177.424 136.586 177.869C136.083 177.542 135.837 177.045 135.846 176.379C135.85 176.112 136.001 175.781 136.3 175.385C136.599 174.962 136.855 174.752 137.068 174.755C137.296 175.639 137.623 176.136 138.048 176.249C138.189 175.718 138.302 175.212 138.389 174.733C138.476 174.228 138.549 173.776 138.607 173.376C138.811 172.179 138.959 171.061 139.054 170.022C139.174 168.984 139.241 168.011 139.254 167.105C139.259 166.731 139.25 166.371 139.228 166.024C139.233 165.678 139.224 165.344 139.202 165.024C137.861 165.565 136.775 165.991 135.944 166.299C135.113 166.608 134.55 166.813 134.256 166.916C132.407 167.531 130.79 167.829 129.403 167.81C128.283 167.794 127.328 167.461 126.536 166.81C125.772 166.133 125.398 165.261 125.412 164.194C125.426 163.181 125.774 162.133 126.455 161.048C126.591 160.864 126.713 160.772 126.819 160.773C126.926 160.775 126.978 160.842 126.977 160.976C126.977 160.976 126.785 161.32 126.402 162.008C126.048 162.59 125.866 163.187 125.858 163.8C125.836 165.374 126.812 166.174 128.785 166.201C129.958 166.217 131.669 165.934 133.917 165.351L139.059 163.782C138.564 161.028 137.383 159.638 135.516 159.613C135.409 159.611 135.316 159.61 135.236 159.609C135.156 159.608 135.063 159.62 134.956 159.645C135.671 159.975 136.023 160.553 136.012 161.38C136.001 162.153 135.754 162.656 135.271 162.89C135.053 161.26 134.277 160.502 132.942 160.617C133.382 159.663 134.255 159.195 135.562 159.213C137.775 159.244 139.181 160.703 139.782 163.592C142.513 162.829 144.864 162.461 146.838 162.488C146.971 162.49 147.091 162.492 147.198 162.493C147.331 162.495 147.451 162.51 147.557 162.538C149.204 161.067 150.747 160.342 152.187 160.361C152.827 160.37 153.477 160.619 154.137 161.108C154.798 161.544 155.124 162.069 155.116 162.682C155.109 163.162 154.973 163.4 154.706 163.396C154.679 163.396 154.351 163.005 153.722 162.223C153.146 161.441 152.405 161.045 151.498 161.032C150.378 161.017 149.278 161.535 148.196 162.587C151.207 162.815 153.662 163.649 155.563 165.088C157.806 166.826 158.908 169.095 158.87 171.894C158.848 173.441 158.374 174.994 157.446 176.555C154.502 181.155 149.124 183.402 141.312 183.294L140.352 183.281C138.672 189.072 136.264 192.546 133.128 193.703C131.976 194.114 130.732 194.337 129.398 194.372L129.278 194.37ZM138.765 182.299C139.071 181.37 139.365 180.374 139.646 179.311C139.954 178.249 140.25 177.106 140.533 175.883C141.89 170.301 144.015 166.037 146.909 163.089C145.976 163.103 144.934 163.249 143.783 163.526C142.633 163.804 141.36 164.2 139.966 164.714C140.014 165.142 140.035 165.569 140.029 165.995C140.05 166.422 140.057 166.889 140.05 167.396C140.036 168.409 139.967 169.515 139.844 170.713C139.721 171.912 139.517 173.175 139.232 174.505C139.03 175.649 138.773 176.832 138.463 178.055C138.153 179.277 137.775 180.566 137.33 181.92L138.765 182.299ZM141.92 182.703C144.773 182.742 147.366 182.271 149.7 181.289C152.382 180.206 154.352 178.513 155.61 176.21C156.43 174.781 156.85 173.307 156.871 171.787C156.907 169.147 156.029 167.042 154.237 165.47C152.577 164.007 150.415 163.217 147.749 163.101C146.285 164.868 144.843 167.915 143.423 172.242C143.312 172.561 143.018 173.584 142.541 175.311C142.064 177.037 141.391 179.468 140.521 182.603C140.761 182.633 140.987 182.663 141.2 182.693C141.44 182.696 141.68 182.699 141.92 182.703ZM160.319 179.035C159.999 179.03 159.708 178.88 159.445 178.583C159.183 178.286 159.054 177.977 159.058 177.657C159.068 176.911 159.487 176.543 160.313 176.555C161.113 176.566 161.508 176.958 161.497 177.731C161.485 178.611 161.093 179.045 160.319 179.035ZM159.628 191.507C158.722 191.494 157.966 191.177 157.361 190.555C156.783 189.907 156.502 188.983 156.519 187.784C156.539 186.317 156.96 184.829 157.78 183.32C158.081 182.764 158.592 182.491 159.312 182.501C159.738 182.507 159.95 182.643 159.946 182.91C159.945 182.99 159.903 183.11 159.821 183.268C158.863 185.042 158.376 186.569 158.358 187.849C158.345 188.782 158.496 189.464 158.81 189.895C159.151 190.327 159.615 190.546 160.201 190.554C161.134 190.567 162.072 190.233 163.015 189.553C163.958 188.846 164.877 187.992 165.771 186.99C165.852 186.858 165.973 186.793 166.133 186.795C166.24 186.797 166.293 186.851 166.291 186.958C166.29 187.038 166.235 187.157 166.126 187.315C166.044 187.448 165.963 187.58 165.881 187.712C165.528 188.161 165.108 188.621 164.622 189.095C164.135 189.568 163.569 190.014 162.923 190.432C162.412 190.771 161.862 191.03 161.272 191.209C160.709 191.415 160.161 191.514 159.628 191.507ZM172.087 191.558C171.127 191.544 170.656 190.938 170.672 189.738C170.681 189.098 170.932 188.301 171.425 187.348C171.893 186.288 172.13 185.518 172.137 185.038C172.142 184.691 172.012 184.422 171.748 184.232C171.51 184.042 171.206 183.865 170.835 183.7C170.57 183.563 170.292 183.399 170.002 183.208C169.711 183.017 169.474 182.828 169.289 182.638C169.097 183.036 168.675 183.723 168.021 184.701C167.368 185.679 166.66 186.683 165.9 187.712C165.791 187.844 165.683 187.909 165.577 187.908C165.47 187.906 165.418 187.812 165.421 187.626C165.423 187.439 165.533 187.241 165.749 187.03C165.966 186.766 166.278 186.344 166.686 185.763C167.095 185.155 167.504 184.507 167.913 183.82C168.323 183.105 168.638 182.483 168.859 181.952C168.732 181.497 168.63 181.109 168.555 180.788C168.479 180.467 168.444 180.146 168.448 179.826C168.456 179.267 168.623 178.762 168.949 178.313C169.275 177.864 169.691 177.643 170.198 177.65C170.918 177.66 171.272 178.092 171.26 178.945C171.248 179.878 170.874 180.847 170.14 181.85C170.245 182.011 170.376 182.146 170.535 182.255C170.693 182.364 170.945 182.488 171.29 182.626C171.475 182.708 171.648 182.764 171.808 182.793C171.994 182.822 172.154 182.838 172.287 182.839C172.5 182.842 172.674 182.831 172.808 182.807C172.968 182.782 173.101 182.771 173.208 182.772C173.368 182.774 173.553 182.87 173.764 183.06C174.002 183.223 174.118 183.478 174.114 183.825C174.111 184.011 174.096 184.131 174.069 184.184C174.041 184.237 173.958 184.463 173.819 184.861C173.708 185.233 173.5 185.763 173.198 186.452C172.645 187.831 172.365 188.801 172.358 189.361C172.347 190.108 172.595 190.484 173.102 190.491C173.662 190.499 174.333 190.175 175.116 189.519C175.925 188.863 176.669 188.087 177.348 187.189C177.429 187.11 177.496 187.071 177.549 187.072C177.656 187.074 177.708 187.168 177.706 187.354C177.703 187.541 177.634 187.713 177.498 187.871C176.412 189.27 175.439 190.243 174.578 190.792C173.718 191.313 172.887 191.569 172.087 191.558ZM177.689 191.674C176.596 191.659 176.056 191.119 176.071 190.052C176.085 189.039 176.837 187.636 178.329 185.843C179.685 184.181 180.861 183.037 181.856 182.411C182.852 181.784 183.776 181.477 184.629 181.489C185.642 181.503 186.145 181.803 186.137 182.389C186.135 182.523 185.999 182.721 185.729 182.984C185.459 183.22 185.31 183.365 185.283 183.418C184.765 184.237 184.488 185.914 184.454 188.447C184.434 189.913 184.743 190.651 185.383 190.66C185.97 190.668 186.655 190.331 187.437 189.648C188.22 188.965 188.951 188.202 189.629 187.358C189.71 187.279 189.777 187.24 189.831 187.241C189.937 187.242 189.99 187.309 189.988 187.443C189.987 187.496 189.959 187.589 189.904 187.722C189.876 187.855 189.834 187.961 189.78 188.04C188.666 189.492 187.706 190.465 186.899 190.961C186.119 191.457 185.356 191.7 184.609 191.689C183.409 191.673 182.84 190.385 182.902 187.826C182.383 188.725 181.638 189.568 180.667 190.355C179.535 191.246 178.542 191.686 177.689 191.674ZM178.783 190.609C179.237 190.616 179.719 190.435 180.231 190.069C181.821 188.838 182.88 186.505 183.407 183.072C183.327 183.071 183.274 183.057 183.248 183.03C182.715 183.023 182.004 183.333 181.115 183.961C180.361 184.457 179.754 184.995 179.293 185.576C178.207 186.948 177.657 188.14 177.643 189.154C177.63 190.113 178.01 190.599 178.783 190.609ZM194.509 192.145C192.962 192.124 191.755 191.654 190.888 190.735C190.047 189.817 189.638 188.545 189.66 186.918C189.678 185.585 189.936 184.282 190.434 183.008C189.634 182.998 189.008 182.909 188.557 182.743C187.813 182.572 187.443 182.287 187.449 181.887C187.451 181.727 187.572 181.649 187.812 181.652C187.999 181.655 188.212 181.671 188.451 181.701C188.718 181.705 189.024 181.722 189.371 181.754C189.744 181.786 190.063 181.817 190.33 181.847C190.596 181.851 190.809 181.854 190.969 181.856L192.414 178.595C192.745 177.826 193.047 177.204 193.32 176.728C193.593 176.251 193.811 175.921 193.974 175.736C194.38 175.315 194.916 175.109 195.582 175.118C196.222 175.127 196.54 175.265 196.537 175.532L195.107 177.712C194.589 178.505 194.125 179.259 193.716 179.973C193.332 180.688 192.99 181.363 192.688 181.999C194.341 182.022 195.661 182.04 196.647 182.054C197.634 182.041 198.301 182.036 198.648 182.041L198.968 182.046C199.288 182.05 199.447 182.092 199.446 182.172C199.444 182.332 199.122 182.474 198.48 182.599C197.332 182.716 196.25 182.808 195.236 182.874C194.222 182.94 193.261 182.967 192.354 182.955C192.078 183.644 191.842 184.375 191.644 185.145C191.474 185.89 191.384 186.609 191.375 187.302C191.36 188.342 191.588 189.252 192.057 190.031C192.527 190.811 193.375 191.21 194.601 191.226C196.068 191.247 197.232 190.916 198.095 190.234C198.985 189.526 199.891 188.619 200.813 187.511C200.948 187.353 201.069 187.275 201.176 187.276C201.256 187.277 201.295 187.345 201.293 187.478C201.291 187.665 201.181 187.903 200.963 188.193C199.797 189.644 198.703 190.669 197.681 191.269C196.686 191.868 195.628 192.161 194.509 192.145ZM201.836 192.486C200.849 192.472 200.366 191.746 200.385 190.306C200.39 189.932 200.436 189.52 200.522 189.068C200.609 188.615 200.722 188.137 200.862 187.632C201.141 186.702 201.556 185.655 202.105 184.489C202.928 182.847 203.606 182.029 204.139 182.036C204.646 182.043 205.055 182.329 205.368 182.893C205.582 182.816 205.756 182.779 205.889 182.781C206.636 182.791 207.001 183.356 206.986 184.476C206.979 184.956 206.878 185.514 206.683 186.152C206.487 186.789 206.157 187.585 205.69 188.538C206.348 189.161 206.997 189.476 207.637 189.485C208.144 189.492 208.625 189.379 209.082 189.145C209.539 188.885 210.053 188.385 210.623 187.646C210.677 187.593 210.757 187.568 210.864 187.569C210.944 187.57 210.983 187.651 210.981 187.811C210.978 187.971 210.909 188.143 210.773 188.328C210.421 188.777 209.975 189.184 209.437 189.55C208.925 189.89 208.283 190.054 207.51 190.043C206.736 190.033 206.047 189.757 205.441 189.215C204.397 191.414 203.195 192.505 201.836 192.486ZM205.217 188.012C205.437 187.535 205.604 187.044 205.718 186.539C205.831 186.033 205.892 185.488 205.9 184.901C205.912 183.994 205.652 183.537 205.119 183.53C204.612 183.523 204.352 184.013 204.339 185C204.333 185.426 204.419 185.947 204.597 186.563C204.802 187.179 205.009 187.662 205.217 188.012ZM202.571 191.376C202.944 191.381 203.416 191.027 203.986 190.315C204.23 190.025 204.434 189.735 204.598 189.443C204.762 189.126 204.872 188.914 204.926 188.808C204.533 188.349 204.193 187.864 203.906 187.354C203.62 186.843 203.454 186.321 203.408 185.787C203.084 186.049 202.741 186.738 202.379 187.853C202.017 188.968 201.833 189.779 201.826 190.286C201.816 191.005 202.064 191.369 202.571 191.376Z" fill="#FFD9D1"/>
<path d="M62.3665 198.637L145.784 197.629L145.784 211.153L68.8967 215.153L62.3665 198.637Z" fill="#DF8E7E"/>
<path d="M70.2817 209.426C69.8873 209.432 69.6864 209.198 69.6791 208.726C69.6718 208.253 69.8171 207.419 70.1151 206.223C70.4131 205.027 70.7469 204.002 71.1166 203.148C71.1921 202.979 71.2355 202.879 71.2467 202.847C71.3907 202.556 71.5798 202.409 71.8142 202.405C71.9704 202.403 72.1179 202.465 72.2566 202.592C72.3952 202.714 72.4855 202.998 72.5275 203.443C72.5695 203.884 72.5773 204.261 72.5509 204.574C72.3922 206.19 72.0359 207.406 71.4821 208.223L71.3962 208.354C71.3428 208.44 71.3008 208.504 71.2702 208.543C71.3969 208.908 71.5161 209.162 71.6277 209.305C71.8547 209.587 72.2183 209.726 72.7183 209.722C72.8589 209.72 72.9335 209.744 72.9421 209.795C72.9361 209.912 72.7612 209.973 72.4175 209.979C72.2456 209.981 72.0715 209.963 71.8951 209.922C71.4049 209.805 71.0222 209.563 70.747 209.196C70.5853 209.347 70.4302 209.423 70.2817 209.426ZM72.157 203.736C72.1084 203.369 72.047 203.189 71.9729 203.194C71.6841 203.214 71.2853 204.206 70.7765 206.172C70.4925 207.258 70.3507 207.944 70.3512 208.229C70.3552 208.237 70.3596 208.268 70.3643 208.323C70.3729 208.373 70.3968 208.398 70.4358 208.398C70.4865 208.393 70.5599 208.337 70.6559 208.23C70.9207 207.918 71.2057 207.399 71.5109 206.676C71.9671 205.602 72.1894 204.696 72.178 203.958C72.1771 203.9 72.1701 203.826 72.157 203.736ZM73.9745 204.171C74.1355 204.227 74.2188 204.304 74.2242 204.401C74.2247 204.436 74.1989 204.533 74.1466 204.69C74.1466 204.69 74.0757 204.904 73.9338 205.332C73.4336 206.84 73.154 207.836 73.0951 208.322C73.3773 207.876 73.7152 207.242 74.1088 206.419C74.5063 205.592 74.7467 205.098 74.8302 204.937C74.9136 204.775 74.976 204.638 75.0172 204.524C75.0623 204.41 75.1043 204.347 75.1432 204.334C75.182 204.318 75.2541 204.309 75.3596 204.308C75.5158 204.305 75.5951 204.376 75.5973 204.521C75.5867 204.595 75.5065 204.841 75.3567 205.257C75.2107 205.669 75.0532 206.223 74.8842 206.917C74.719 207.607 74.6386 208.093 74.643 208.374C74.6512 208.651 74.6807 208.793 74.7316 208.8C74.9035 208.798 75.2083 208.549 75.646 208.054C76.0875 207.555 76.4088 207.106 76.6097 206.708C76.6932 206.551 76.774 206.47 76.8521 206.464C76.8912 206.472 76.9132 206.503 76.9179 206.557C76.923 206.885 76.7109 207.316 76.2816 207.85C75.8562 208.384 75.4889 208.761 75.1798 208.981L75.0638 209.059C74.9321 209.131 74.835 209.168 74.7725 209.169L74.6729 209.17C74.3282 209.117 74.148 208.831 74.1322 208.311C74.1282 208.054 74.1632 207.787 74.2371 207.513L74.3586 207.036C73.9888 207.882 73.6775 208.465 73.4246 208.785C73.1755 209.102 72.9475 209.261 72.7405 209.265C72.5841 209.259 72.5039 209.12 72.4996 208.846C72.4926 208.393 72.641 207.631 72.9449 206.56C73.3747 205.049 73.6476 204.25 73.7634 204.162C73.7867 204.15 73.8139 204.144 73.8452 204.143C73.8764 204.143 73.9195 204.152 73.9745 204.171ZM79.1006 205.217C78.4773 205.332 77.9388 205.75 77.4851 206.472C77.0427 207.175 76.8151 207.866 76.8021 208.546C77.6784 207.352 78.4445 206.243 79.1006 205.217ZM78.8234 204.723L79.1698 204.764C79.2245 204.764 79.2807 204.731 79.3383 204.668C79.3998 204.605 79.4774 204.572 79.5712 204.571C79.6688 204.569 79.7454 204.593 79.8009 204.643C79.8602 204.693 79.8902 204.738 79.8908 204.777C79.8914 204.812 79.8728 204.873 79.835 204.959C79.7973 205.046 79.7747 205.103 79.7673 205.13C79.273 206.767 79.0293 207.81 79.0363 208.259C79.0426 208.415 79.079 208.495 79.1454 208.498C79.3837 208.494 79.7519 208.176 80.25 207.543C80.5833 207.12 80.7973 206.81 80.8919 206.613C80.9905 206.416 81.0689 206.311 81.1273 206.299C81.1391 206.299 81.1488 206.297 81.1566 206.293C81.227 206.299 81.2647 206.34 81.2698 206.414C81.2719 206.554 81.1147 206.873 80.7981 207.37C80.1231 208.436 79.5337 208.972 79.0298 208.98C78.6666 208.986 78.481 208.735 78.4732 208.227C78.4695 207.985 78.5136 207.683 78.6057 207.322C78.6978 206.958 78.7529 206.73 78.771 206.64C78.683 206.759 78.3888 207.189 77.8885 207.931C77.3882 208.673 77.0277 209.112 76.8071 209.249C76.7374 209.289 76.6772 209.311 76.6265 209.316C76.4039 209.319 76.2404 209.234 76.1362 209.06C76.088 208.975 76.0626 208.852 76.0602 208.692C76.0537 208.528 76.1671 208.151 76.4002 207.561C76.7762 206.61 77.2082 205.875 77.6964 205.356C78.0808 204.951 78.4565 204.74 78.8234 204.723ZM80.7179 209.382C80.7227 209.698 80.7899 210.002 80.9195 210.293C81.138 210.782 81.4542 211.023 81.8682 211.016C82.1924 211.011 82.4626 210.923 82.6787 210.752C82.8988 210.585 83.1563 210.309 83.4512 209.926C83.5431 209.803 83.6401 209.76 83.7422 209.798C83.8443 209.832 83.8963 209.911 83.8983 210.036C83.9039 210.403 83.6901 210.721 83.2567 210.989C82.8272 211.258 82.4152 211.395 82.0207 211.401C80.8528 211.419 80.2583 210.737 80.2369 209.354C80.2276 208.749 80.3311 208.116 80.5475 207.456L80.6035 207.286C81.3015 205.181 81.8462 203.768 82.2374 203.047C82.5107 202.527 82.8114 202.265 83.1394 202.259C83.6043 202.256 83.8432 202.421 83.8561 202.752C83.8593 202.959 83.7257 203.29 83.4554 203.743C83.1849 204.193 82.6404 204.98 81.8217 206.106C81.6145 206.348 81.4312 206.62 81.2718 206.924C80.8888 207.672 80.7041 208.491 80.7179 209.382ZM81.7354 205.451C81.794 205.447 82.0569 205.021 82.5244 204.174C82.9957 203.322 83.2292 202.883 83.2248 202.856C83.2204 202.825 83.2046 202.809 83.1772 202.81C83.1498 202.806 83.1323 202.809 83.1246 202.816C82.9969 202.897 82.7299 203.317 82.3237 204.077C81.9212 204.833 81.7211 205.282 81.7233 205.422C81.7234 205.434 81.7275 205.444 81.7354 205.451ZM84.7534 203.553C84.7337 203.546 84.6844 203.515 84.6054 203.462C84.5107 203.397 84.4631 203.349 84.4626 203.317C84.4609 203.212 84.6036 202.962 84.8905 202.566C85.1774 202.171 85.3398 201.934 85.3776 201.856C85.4738 201.757 85.6093 201.803 85.7841 201.996C85.9234 202.158 85.9684 202.29 85.9192 202.392C85.8934 202.494 85.7307 202.712 85.4311 203.045C85.1316 203.377 84.9056 203.547 84.7534 203.553ZM86.2104 207.211C86.0721 207.619 85.7915 208.038 85.3683 208.466C84.8683 208.974 84.4464 209.23 84.1027 209.236C83.6379 209.243 83.3429 208.984 83.2176 208.458C83.18 208.299 83.1597 208.125 83.1568 207.938C83.1435 207.332 83.2479 206.629 83.47 205.829C83.7474 204.817 84.0169 204.309 84.2786 204.305C84.4075 204.303 84.5017 204.332 84.5612 204.394C84.6246 204.452 84.6565 204.494 84.657 204.521C84.6589 204.646 84.5367 204.957 84.2904 205.453C84.0441 205.945 83.8914 206.303 83.8324 206.527C83.7771 206.746 83.7367 207.034 83.7109 207.39C83.689 207.742 83.6788 207.969 83.6804 208.07C83.6857 208.414 83.73 208.628 83.8134 208.713C83.9006 208.797 84.0048 208.841 84.126 208.843C84.4697 208.837 84.8752 208.532 85.3424 207.927C85.5684 207.631 85.7439 207.359 85.869 207.111C85.9261 207.016 85.9859 206.968 86.0484 206.967C86.1541 206.981 86.2135 207.033 86.2266 207.123C86.2268 207.134 86.2214 207.164 86.2104 207.211ZM87.743 204.38L89.8456 204.301C89.8886 204.3 89.936 204.338 89.988 204.416C90.0399 204.489 90.0688 204.59 90.0747 204.719C90.0722 204.805 89.9615 204.852 89.7429 204.859C89.0947 204.885 88.3109 204.975 87.3913 205.13C87.3279 205.322 87.2247 205.599 87.0818 205.961C86.4539 207.549 86.1449 208.661 86.1547 209.298C86.1596 209.614 86.2248 209.918 86.3504 210.209C86.569 210.698 86.8872 210.939 87.3051 210.933C87.6293 210.928 87.8994 210.839 88.1156 210.668C88.3357 210.501 88.5931 210.225 88.888 209.842C88.9799 209.719 89.0769 209.675 89.179 209.708C89.2773 209.75 89.3274 209.833 89.3293 209.958C89.3349 210.317 89.1325 210.619 88.7222 210.864C88.3119 211.112 87.8685 211.24 87.392 211.248C86.9194 211.255 86.5066 211.087 86.1536 210.745C85.8045 210.403 85.6255 209.943 85.6166 209.365C85.6107 208.978 85.6531 208.563 85.7439 208.12C85.8347 207.678 86.004 207.126 86.2516 206.466C86.4992 205.802 86.6604 205.36 86.7351 205.14C85.9266 205.152 85.4754 205.15 85.3813 205.131C85.0913 205.073 84.943 204.953 84.9362 204.769C84.9392 204.711 84.9836 204.673 85.0692 204.656L86.9709 204.468L88.1921 202.34C88.3328 202.095 88.4618 201.972 88.579 201.97C88.6259 201.97 88.6807 201.977 88.7434 201.991C88.9746 202.039 89.0911 202.121 89.0929 202.238C89.0947 202.351 88.9802 202.529 88.7496 202.771C88.5189 203.012 88.3767 203.167 88.3231 203.234C88.143 203.464 87.9497 203.846 87.743 204.38ZM91.758 204.054C91.9768 204.051 92.0929 204.112 92.1066 204.237C92.1072 204.276 92.0376 204.574 91.8977 205.13C91.8977 205.13 91.811 205.462 91.6376 206.125C91.5825 206.348 91.512 206.719 91.4262 207.236C91.3443 207.749 91.2578 208.219 91.1667 208.646C90.8023 210.347 90.4086 211.543 89.9856 212.233C89.8599 212.438 89.7028 212.636 89.5143 212.826C89.0951 213.255 88.7038 213.472 88.3406 213.477C88.1687 213.48 88.0822 213.44 88.0809 213.358C88.0843 213.327 88.1386 213.297 88.2436 213.268C88.3487 213.243 88.4632 213.194 88.5871 213.122C88.9354 212.906 89.1984 212.613 89.3763 212.243C90.0913 210.977 90.5945 209.157 90.886 206.781C90.7781 207.13 90.5527 207.589 90.2099 208.157C89.8709 208.721 89.5529 209.005 89.2561 209.01C89.096 209.012 89.0154 208.853 89.0143 208.533C89.0106 207.529 89.3324 206.108 89.9799 204.269C90.0061 204.195 90.0305 204.132 90.0532 204.081C90.1098 203.955 90.1713 203.891 90.2377 203.89C90.308 203.889 90.3687 203.894 90.4196 203.905C90.6234 203.945 90.7282 204.025 90.7339 204.146C90.7344 204.174 90.7085 204.27 90.6563 204.435L90.3822 205.277C89.9456 206.604 89.6865 207.534 89.6049 208.067C89.8642 207.656 90.2191 206.987 90.6697 206.058C91.1241 205.129 91.3703 204.627 91.4082 204.552C91.454 204.477 91.4881 204.408 91.5105 204.345L91.5555 204.222C91.6007 204.112 91.6682 204.056 91.758 204.054ZM97.7771 202.209L97.777 202.203C97.7916 202.137 97.8096 202.035 97.8309 201.898C97.8562 201.761 97.8977 201.668 97.9556 201.621C98.0173 201.573 98.1478 201.547 98.347 201.544C98.4604 201.55 98.5199 201.606 98.5254 201.711C98.5261 201.754 98.5246 201.789 98.5212 201.817L98.4389 202.181C98.9504 202.162 99.622 202.142 100.454 202.121C100.583 202.119 100.682 202.202 100.751 202.368C100.771 202.419 100.781 202.464 100.782 202.503C100.779 202.585 100.624 202.628 100.315 202.633C99.628 202.655 98.9586 202.693 98.307 202.746C97.5747 205.926 97.1398 207.739 97.0021 208.187C96.8684 208.634 96.7427 208.968 96.625 209.189C96.5073 209.413 96.3387 209.623 96.119 209.818C95.9032 210.013 95.727 210.113 95.5904 210.119C95.5395 210.112 95.5137 210.085 95.513 210.038C95.5122 209.991 95.5558 209.903 95.6436 209.772C96.0324 209.141 96.3847 208.177 96.7007 206.879L97.6398 202.803C96.9376 202.869 96.2057 202.907 95.4441 202.919C94.6824 202.931 94.2037 202.923 94.008 202.895C93.8122 202.866 93.6803 202.798 93.6122 202.69C93.5922 202.659 93.582 202.63 93.5815 202.602C93.5806 202.544 93.6387 202.51 93.7558 202.5C93.7597 202.5 93.7636 202.5 93.7675 202.5L96.4248 202.295C96.8735 202.26 97.3243 202.232 97.7771 202.209ZM99.7012 204.612C99.5064 204.646 99.262 205.138 98.968 206.088C98.6741 207.038 98.5284 207.599 98.531 207.771C98.5337 207.942 98.5507 208.028 98.5819 208.028C98.7459 208.025 98.9963 207.67 99.3331 206.961C99.6698 206.249 99.8336 205.6 99.8246 205.014C99.8205 204.748 99.7793 204.614 99.7012 204.612ZM99.5962 203.886C99.7056 203.885 99.7998 203.915 99.8789 203.976C100.017 204.091 100.089 204.316 100.094 204.652C100.118 206.187 99.8625 207.342 99.3275 208.116L99.2474 208.24C98.9152 208.737 98.6456 208.988 98.4386 208.991C98.1843 208.967 98.0349 208.784 97.9906 208.441C97.9862 208.156 98.0924 207.576 98.3094 206.702C98.5303 205.827 98.7862 205.069 99.0772 204.428C99.2436 204.074 99.4166 203.893 99.5962 203.886ZM102.901 204.99L102.89 205.066L102.88 205.137C102.881 205.23 102.75 205.608 102.487 206.268C102.22 206.928 102.09 207.395 102.098 207.669C102.113 208.133 102.23 208.366 102.449 208.366C102.668 208.363 102.984 208.114 103.398 207.619C103.897 207.026 104.201 206.579 104.31 206.281C104.418 205.986 104.504 205.838 104.566 205.837C104.617 205.84 104.645 205.895 104.651 206C104.652 206.102 104.642 206.18 104.619 206.235L104.563 206.394C104.402 206.826 104.145 207.278 103.793 207.748C103.284 208.439 102.827 208.788 102.42 208.795C102.291 208.797 102.174 208.765 102.067 208.7C101.799 208.537 101.661 208.222 101.654 207.758C101.652 207.605 101.681 207.37 101.743 207.053C101.808 206.735 101.839 206.565 101.835 206.542C101.834 206.514 101.799 206.486 101.728 206.455C101.586 206.395 101.492 206.389 101.446 206.436C101.408 206.492 101.241 206.916 100.944 207.71C100.652 208.504 100.449 208.901 100.336 208.903C100.301 208.904 100.234 208.881 100.136 208.836C100.033 208.79 99.9815 208.727 99.9803 208.645C99.98 208.629 100.029 208.509 100.127 208.285L100.438 207.536C100.656 207.009 100.911 206.308 101.202 205.432L101.947 203.217C101.966 203.162 102.028 203.132 102.134 203.127L102.286 203.118C102.473 203.115 102.568 203.182 102.57 203.319C102.571 203.385 102.474 203.68 102.279 204.203C102.084 204.725 101.959 205.127 101.905 205.41L101.89 205.586C101.891 205.636 101.901 205.666 101.921 205.673C101.933 205.669 101.98 205.582 102.063 205.413L102.211 205.112C102.234 205.076 102.257 205.029 102.279 204.97C102.363 204.809 102.463 204.727 102.58 204.725C102.783 204.726 102.89 204.808 102.9 204.972L102.901 204.99ZM106.486 204.935L106.476 205.011L106.465 205.081C106.467 205.175 106.336 205.552 106.072 206.213C105.805 206.873 105.676 207.34 105.684 207.613C105.699 208.078 105.816 208.311 106.034 208.311C106.253 208.308 106.57 208.059 106.984 207.564C107.483 206.97 107.786 206.524 107.895 206.225C108.004 205.931 108.089 205.783 108.152 205.782C108.203 205.785 108.231 205.839 108.236 205.945C108.238 206.046 108.227 206.125 108.205 206.18L108.149 206.339C107.987 206.771 107.731 207.222 107.379 207.693C106.87 208.384 106.412 208.733 106.006 208.739C105.877 208.741 105.759 208.71 105.653 208.645C105.385 208.481 105.247 208.167 105.24 207.702C105.237 207.55 105.267 207.315 105.329 206.998C105.394 206.68 105.425 206.51 105.42 206.486C105.42 206.459 105.384 206.43 105.313 206.4C105.172 206.34 105.078 206.333 105.032 206.381C104.994 206.436 104.826 206.861 104.53 207.655C104.238 208.448 104.035 208.846 103.921 208.848C103.886 208.848 103.819 208.826 103.721 208.78C103.619 208.735 103.567 208.671 103.566 208.589C103.566 208.574 103.614 208.454 103.713 208.23L104.023 207.481C104.242 206.954 104.497 206.253 104.788 205.377L105.533 203.162C105.552 203.107 105.614 203.077 105.719 203.071L105.871 203.063C106.059 203.06 106.154 203.127 106.156 203.264C106.157 203.33 106.06 203.625 105.865 204.147C105.67 204.67 105.545 205.072 105.491 205.354L105.476 205.53C105.477 205.581 105.487 205.61 105.506 205.618C105.518 205.614 105.566 205.527 105.649 205.358L105.797 205.057C105.82 205.021 105.842 204.974 105.865 204.915C105.948 204.753 106.049 204.672 106.166 204.67C106.369 204.671 106.476 204.753 106.486 204.917L106.486 204.935ZM108.842 205.713C108.92 205.7 109.086 205.529 109.338 205.201C109.591 204.873 109.716 204.617 109.713 204.433C109.713 204.406 109.703 204.375 109.683 204.34C109.606 204.42 109.445 204.645 109.201 205.016C108.96 205.387 108.841 205.619 108.842 205.713ZM111.188 206.55C111.38 206.336 111.488 206.297 111.514 206.433C111.515 206.484 111.485 206.569 111.424 206.687C111.238 207.045 110.951 207.426 110.563 207.831C109.948 208.473 109.4 208.798 108.919 208.806C108.693 208.809 108.498 208.748 108.336 208.621C108.032 208.38 107.875 207.954 107.865 207.345C107.86 206.998 107.958 206.508 108.159 205.876C108.364 205.24 108.683 204.662 109.117 204.144C109.308 203.891 109.51 203.763 109.72 203.759C109.822 203.758 109.928 203.778 110.038 203.819C110.297 203.921 110.429 204.088 110.432 204.323C110.433 204.358 110.422 204.415 110.4 204.493C110.245 204.812 109.992 205.181 109.643 205.601C109.294 206.02 108.938 206.356 108.575 206.608C108.457 207.063 108.4 207.417 108.404 207.671C108.408 207.925 108.416 208.087 108.429 208.157C108.467 208.32 108.599 208.4 108.825 208.397C109.052 208.393 109.312 208.286 109.605 208.074C109.899 207.859 110.211 207.577 110.542 207.228C110.872 206.879 111.059 206.683 111.101 206.639C111.147 206.595 111.176 206.565 111.188 206.55ZM115.309 206.293C115.312 206.488 115.095 206.851 114.658 207.381C114.221 207.911 113.892 208.262 113.672 208.433C113.456 208.601 113.236 208.686 113.014 208.69C112.6 208.692 112.388 208.367 112.378 207.715C112.373 207.406 112.428 206.923 112.543 206.265C112.657 205.603 112.718 205.243 112.725 205.184C112.313 205.327 111.925 205.853 111.56 206.761C111.485 206.953 111.365 207.281 111.2 207.745C111.039 208.204 110.924 208.478 110.855 208.565C110.771 208.668 110.658 208.72 110.518 208.722C110.377 208.725 110.304 208.675 110.299 208.573C110.296 208.386 110.899 206.822 112.107 203.881C112.296 203.417 112.405 203.157 112.435 203.102C112.5 202.972 112.638 202.976 112.851 203.113C112.915 203.155 112.947 203.198 112.947 203.241C112.952 203.284 112.924 203.353 112.862 203.447C112.721 203.676 112.597 203.942 112.488 204.244L112.274 204.828L112.458 204.596C112.623 204.387 112.755 204.228 112.855 204.121C112.955 204.01 113.038 203.949 113.104 203.936C113.175 203.919 113.247 203.91 113.321 203.909C113.481 203.918 113.566 204.003 113.577 204.163C113.578 204.241 113.552 204.347 113.5 204.481C113.262 205.051 113.086 205.911 112.971 207.061C112.941 207.39 112.928 207.679 112.932 207.929C112.939 208.175 113.002 208.299 113.119 208.301C113.283 208.299 113.578 208.04 114.004 207.526C114.429 207.007 114.735 206.579 114.921 206.24C114.971 206.157 115.043 206.113 115.136 206.108C115.234 206.13 115.292 206.191 115.309 206.293ZM116.544 203.935L118.647 203.856C118.69 203.855 118.737 203.894 118.789 203.971C118.841 204.044 118.87 204.146 118.876 204.274C118.873 204.36 118.763 204.407 118.544 204.414C117.896 204.44 117.112 204.53 116.193 204.685C116.129 204.877 116.026 205.154 115.883 205.516C115.255 207.104 114.946 208.216 114.956 208.853C114.961 209.169 115.026 209.473 115.152 209.764C115.37 210.253 115.688 210.494 116.106 210.488C116.431 210.483 116.701 210.395 116.917 210.223C117.137 210.056 117.394 209.78 117.689 209.397C117.781 209.274 117.878 209.23 117.98 209.263C118.079 209.305 118.129 209.388 118.131 209.513C118.136 209.872 117.934 210.174 117.523 210.419C117.113 210.668 116.67 210.796 116.193 210.803C115.721 210.81 115.308 210.643 114.955 210.301C114.606 209.958 114.427 209.498 114.418 208.92C114.412 208.533 114.454 208.119 114.545 207.676C114.636 207.233 114.805 206.681 115.053 206.021C115.3 205.357 115.462 204.915 115.536 204.695C114.728 204.708 114.277 204.705 114.183 204.687C113.893 204.629 113.744 204.508 113.737 204.324C113.74 204.266 113.785 204.228 113.871 204.211L115.772 204.023L116.993 201.895C117.134 201.651 117.263 201.528 117.38 201.526C117.427 201.525 117.482 201.532 117.545 201.547C117.776 201.594 117.892 201.676 117.894 201.793C117.896 201.906 117.781 202.084 117.551 202.326C117.32 202.568 117.178 202.722 117.124 202.79C116.944 203.019 116.751 203.401 116.544 203.935ZM120.899 207.367L120.87 207.771C120.872 207.924 120.926 208.003 121.032 208.009C121.364 208.004 121.593 207.446 121.721 206.334L122.232 201.855C122.242 201.777 122.27 201.698 122.316 201.619C122.43 201.43 122.581 201.334 122.769 201.331C122.956 201.328 123.15 201.4 123.352 201.545C123.553 201.69 123.656 201.886 123.66 202.132C123.664 202.374 123.621 202.627 123.531 202.89C123.385 203.31 123.195 203.522 122.961 203.526C122.832 203.528 122.737 203.486 122.677 203.401L122.289 206.349C122.222 206.823 122.121 207.238 121.986 207.596C121.738 208.229 121.427 208.548 121.052 208.554C120.872 208.557 120.695 208.483 120.521 208.334C120.351 208.18 120.263 207.935 120.258 207.599C120.252 207.259 120.379 207.086 120.636 207.078C120.8 207.079 120.888 207.175 120.899 207.367ZM122.715 202.791C122.964 202.76 123.092 202.533 123.097 202.111C123.023 202.12 122.936 202.169 122.836 202.256C122.739 202.34 122.692 202.477 122.695 202.668C122.696 202.711 122.703 202.752 122.715 202.791ZM124.344 205.473C124.422 205.46 124.588 205.29 124.84 204.962C125.093 204.634 125.218 204.378 125.215 204.194C125.215 204.167 125.205 204.136 125.185 204.101C125.108 204.18 124.947 204.405 124.703 204.776C124.462 205.147 124.343 205.38 124.344 205.473ZM126.69 206.31C126.882 206.096 126.99 206.058 127.016 206.194C127.017 206.245 126.987 206.329 126.926 206.447C126.74 206.806 126.453 207.187 126.065 207.592C125.45 208.234 124.902 208.559 124.421 208.566C124.195 208.57 124.001 208.508 123.838 208.382C123.534 208.14 123.377 207.715 123.367 207.106C123.362 206.758 123.46 206.268 123.661 205.636C123.866 205 124.186 204.423 124.619 203.904C124.81 203.651 125.012 203.523 125.223 203.52C125.324 203.519 125.43 203.538 125.54 203.58C125.799 203.681 125.931 203.849 125.934 204.083C125.935 204.119 125.924 204.175 125.902 204.254C125.747 204.573 125.495 204.942 125.145 205.361C124.796 205.781 124.44 206.116 124.077 206.368C123.959 206.823 123.902 207.178 123.906 207.432C123.91 207.685 123.918 207.847 123.931 207.918C123.969 208.081 124.101 208.161 124.327 208.158C124.554 208.154 124.814 208.046 125.107 207.835C125.401 207.619 125.713 207.337 126.044 206.988C126.374 206.639 126.561 206.443 126.603 206.4C126.649 206.356 126.678 206.326 126.69 206.31ZM129.169 204.444C128.546 204.559 128.007 204.977 127.553 205.699C127.111 206.401 126.883 207.093 126.87 207.773C127.747 206.579 128.513 205.47 129.169 204.444ZM128.892 203.95L129.238 203.991C129.293 203.991 129.349 203.958 129.407 203.895C129.468 203.832 129.546 203.799 129.639 203.798C129.737 203.796 129.814 203.82 129.869 203.87C129.928 203.92 129.958 203.965 129.959 204.004C129.96 204.039 129.941 204.1 129.903 204.186C129.866 204.273 129.843 204.33 129.836 204.357C129.341 205.994 129.098 207.037 129.105 207.486C129.111 207.642 129.147 207.722 129.214 207.725C129.452 207.721 129.82 207.403 130.318 206.77C130.652 206.347 130.866 206.037 130.96 205.84C131.059 205.643 131.137 205.538 131.196 205.526C131.207 205.526 131.217 205.524 131.225 205.519C131.295 205.526 131.333 205.567 131.338 205.641C131.34 205.781 131.183 206.1 130.866 206.597C130.191 207.663 129.602 208.199 129.098 208.207C128.735 208.213 128.549 207.961 128.541 207.454C128.538 207.212 128.582 206.91 128.674 206.549C128.766 206.184 128.821 205.957 128.839 205.867C128.751 205.985 128.457 206.416 127.957 207.158C127.456 207.9 127.096 208.339 126.875 208.476C126.806 208.516 126.745 208.538 126.695 208.543C126.472 208.546 126.309 208.461 126.204 208.287C126.156 208.202 126.131 208.079 126.128 207.919C126.122 207.755 126.235 207.378 126.468 206.788C126.844 205.837 127.276 205.102 127.765 204.583C128.149 204.178 128.525 203.967 128.892 203.95ZM132.932 204.526L132.922 204.603L132.911 204.673C132.913 204.767 132.782 205.144 132.518 205.804C132.251 206.465 132.122 206.932 132.13 207.205C132.145 207.67 132.262 207.902 132.48 207.903C132.699 207.899 133.016 207.65 133.43 207.156C133.929 206.562 134.232 206.116 134.341 205.817C134.45 205.522 134.535 205.375 134.598 205.374C134.649 205.377 134.677 205.431 134.683 205.536C134.684 205.638 134.674 205.716 134.651 205.771L134.595 205.93C134.434 206.363 134.177 206.814 133.825 207.284C133.316 207.976 132.858 208.325 132.452 208.331C132.323 208.333 132.205 208.302 132.099 208.237C131.831 208.073 131.693 207.759 131.686 207.294C131.683 207.142 131.713 206.907 131.775 206.589C131.84 206.272 131.871 206.101 131.866 206.078C131.866 206.051 131.83 206.022 131.76 205.992C131.618 205.931 131.524 205.925 131.478 205.973C131.44 206.028 131.272 206.452 130.976 207.246C130.684 208.04 130.481 208.438 130.367 208.439C130.332 208.44 130.266 208.417 130.167 208.372C130.065 208.327 130.013 208.263 130.012 208.181C130.012 208.165 130.061 208.046 130.159 207.821L130.469 207.072C130.688 206.545 130.943 205.844 131.234 204.968L131.979 202.754C131.998 202.699 132.06 202.668 132.165 202.663L132.317 202.655C132.505 202.652 132.6 202.719 132.602 202.855C132.603 202.922 132.506 203.216 132.311 203.739C132.116 204.261 131.991 204.664 131.937 204.946L131.922 205.122C131.923 205.173 131.933 205.202 131.953 205.209C131.964 205.205 132.012 205.119 132.095 204.949L132.243 204.648C132.266 204.613 132.288 204.565 132.311 204.507C132.394 204.345 132.495 204.263 132.612 204.262C132.815 204.262 132.922 204.345 132.932 204.509L132.932 204.526ZM136.029 203.553C136.529 203.545 136.781 203.703 136.786 204.027C136.773 204.195 136.644 204.553 136.399 205.1C136.153 205.643 135.97 205.915 135.849 205.917C135.79 205.906 135.752 205.875 135.736 205.825C135.735 205.794 135.754 205.756 135.793 205.713C135.831 205.669 135.877 205.59 135.93 205.476C136.096 205.13 136.178 204.839 136.174 204.605C136.171 204.371 136.135 204.207 136.067 204.114C135.962 204.12 135.84 204.229 135.703 204.442C135.455 204.841 135.242 205.36 135.065 205.999C134.891 206.639 134.807 207.144 134.813 207.515C134.814 207.589 134.817 207.648 134.821 207.691C134.841 207.956 134.954 208.087 135.161 208.084C135.786 208.074 136.623 207.518 137.673 206.416C137.885 206.198 138.003 206.149 138.028 206.27C138.029 206.336 137.992 206.435 137.916 206.565C137.718 206.904 137.409 207.262 136.989 207.64C136.368 208.2 135.834 208.484 135.384 208.491C135.088 208.491 134.848 208.384 134.665 208.168C134.482 207.956 134.365 207.741 134.315 207.523C134.193 206.997 134.253 206.463 134.495 205.92C134.503 205.904 134.54 205.82 134.608 205.666C135.008 204.742 135.379 204.082 135.72 203.686C135.797 203.603 135.9 203.558 136.029 203.553ZM138.982 204.638C138.985 204.634 139.058 204.543 139.2 204.365C139.342 204.191 139.442 204.072 139.499 204.009L139.609 203.89C139.686 203.814 139.802 203.777 139.959 203.779C140.115 203.777 140.198 203.853 140.208 204.01C140.209 204.052 140.183 204.149 140.131 204.298C140.078 204.447 140.009 204.726 139.921 205.133C139.702 206.121 139.597 206.92 139.606 207.529C139.61 207.775 139.647 207.901 139.718 207.908C139.839 207.906 140.024 207.749 140.273 207.437C140.499 207.156 140.853 206.514 141.333 205.51C141.406 205.38 141.49 205.314 141.588 205.313C141.639 205.324 141.669 205.366 141.678 205.44C141.681 205.635 141.632 205.867 141.53 206.134C141.339 206.649 141.046 207.134 140.65 207.589C140.259 208.044 139.934 208.274 139.677 208.278C139.298 208.28 139.1 207.972 139.082 207.355C139.074 206.848 139.147 206.126 139.301 205.19C139.052 205.276 138.831 205.476 138.636 205.792C138.446 206.107 138.25 206.564 138.048 207.16C137.839 207.777 137.694 208.125 137.613 208.204C137.52 208.276 137.417 208.311 137.304 208.309C137.187 208.311 137.125 208.271 137.12 208.189C137.115 208.107 137.307 207.52 137.697 206.427C138.086 205.335 138.528 204.207 139.021 203.043C139.519 201.879 139.802 201.117 139.871 200.757C139.897 200.647 139.997 200.589 140.173 200.582C140.232 200.581 140.29 200.588 140.349 200.603C140.514 200.643 140.597 200.718 140.599 200.827C140.599 200.866 140.588 200.91 140.566 200.957L140.486 201.099C140.197 201.631 139.696 202.81 138.982 204.638Z" fill="#611F12"/>
<path d="M91.8975 119.621C89.146 115.947 34.4054 110.954 7.37166 112.098C-1.67632 115.155 0.743804 121.097 0.687675 125.186C0.642771 128.458 8.6146 130.901 12.6061 131.713C35.3045 130.509 80.7888 129.013 81.1391 132.653C81.4894 136.294 91.7697 147.949 96.8661 153.322L148.897 154.089L148.897 140L106.637 139.366C102.87 134.315 94.6489 123.294 91.8975 119.621Z" fill="#E4B09A"/>
<path d="M212.406 123.904L189.176 140.499L144.5 140L142 154L195.914 154.681L217.618 140.89L310.962 120.355C312.496 117.952 315.572 112.51 315.607 109.965C315.651 106.784 311.149 106.722 308.654 106.234C306.658 105.843 244.822 119.501 212.406 123.904Z" fill="#E4B09A"/>
</g>
<defs>
<clipPath id="clip0_11_64">
<rect width="316" height="218.719" fill="white"/>
</clipPath>
</defs>
</svg>
